<svg width="305" height="231" viewBox="0 0 305 231" fill="none" xmlns="http://www.w3.org/2000/svg">
<g clip-path="url(#clip0)">
<path d="M163.516 68.9041H162.408V38.5615C162.408 36.2553 161.954 33.9717 161.071 31.841C160.189 29.7103 158.895 27.7744 157.264 26.1436C155.634 24.5129 153.698 23.2193 151.567 22.3368C149.436 21.4542 147.153 21 144.846 21H80.5615C75.9039 21 71.4371 22.8502 68.1437 26.1436C64.8502 29.437 63 33.9038 63 38.5614V205.023C63 207.33 63.4542 209.613 64.3368 211.744C65.2193 213.874 66.5129 215.81 68.1436 217.441C69.7744 219.072 71.7103 220.365 73.841 221.248C75.9716 222.131 78.2552 222.585 80.5615 222.585H144.846C149.504 222.585 153.971 220.735 157.264 217.441C160.558 214.148 162.408 209.681 162.408 205.023V90.5025H163.516V68.9041Z" fill="#3F3D56"/>
<path d="M145.555 25.569H137.164C137.549 26.5151 137.697 27.5415 137.593 28.558C137.488 29.5744 137.136 30.5496 136.566 31.3976C135.996 32.2457 135.226 32.9405 134.324 33.421C133.423 33.9015 132.417 34.1529 131.395 34.1529H94.5668C93.545 34.1529 92.5389 33.9015 91.6372 33.421C90.7355 32.9405 89.9657 32.2457 89.3958 31.3976C88.8259 30.5496 88.4732 29.5744 88.369 28.558C88.2647 27.5415 88.412 26.5151 88.7979 25.569H80.9604C79.2382 25.569 77.5328 25.9082 75.9416 26.5673C74.3505 27.2263 72.9047 28.1924 71.6869 29.4102C70.4691 30.628 69.5031 32.0737 68.844 33.6649C68.1849 35.256 67.8457 36.9614 67.8457 38.6837V204.901C67.8457 206.624 68.1849 208.329 68.844 209.92C69.5031 211.511 70.4691 212.957 71.6869 214.175C72.9047 215.393 74.3505 216.359 75.9416 217.018C77.5328 217.677 79.2382 218.016 80.9604 218.016H145.555C147.277 218.016 148.983 217.677 150.574 217.018C152.165 216.359 153.611 215.393 154.828 214.175C156.046 212.957 157.012 211.511 157.671 209.92C158.33 208.329 158.67 206.624 158.67 204.901V38.6837C158.67 36.9614 158.33 35.256 157.671 33.6649C157.012 32.0737 156.046 30.628 154.828 29.4102C153.611 28.1924 152.165 27.2263 150.574 26.5673C148.983 25.9082 147.277 25.569 145.555 25.569Z" fill="white"/>
<path d="M113.258 149.586C130.607 149.586 144.67 135.522 144.67 118.174C144.67 100.825 130.607 86.7615 113.258 86.7615C95.9095 86.7615 81.8457 100.825 81.8457 118.174C81.8457 135.522 95.9095 149.586 113.258 149.586Z" fill="#24B347"/>
<path d="M110.144 130.157C109.438 130.158 108.75 129.929 108.184 129.505L108.149 129.479L100.767 123.832C100.425 123.57 100.138 123.243 99.9226 122.87C99.7071 122.497 99.5671 122.085 99.5107 121.658C99.4543 121.231 99.4825 120.797 99.5938 120.381C99.7052 119.964 99.8974 119.574 100.159 119.232C100.422 118.89 100.749 118.603 101.122 118.388C101.495 118.172 101.906 118.032 102.333 117.976C102.761 117.92 103.195 117.948 103.611 118.059C104.027 118.17 104.417 118.363 104.759 118.625L109.541 122.292L120.84 107.55C121.102 107.209 121.429 106.922 121.802 106.706C122.175 106.491 122.586 106.351 123.013 106.294C123.44 106.238 123.874 106.266 124.29 106.378C124.706 106.489 125.096 106.681 125.438 106.943L125.439 106.944L125.369 107.041L125.441 106.944C126.13 107.474 126.581 108.255 126.695 109.118C126.809 109.98 126.576 110.852 126.047 111.542L112.757 128.874C112.449 129.273 112.054 129.596 111.601 129.818C111.149 130.04 110.651 130.154 110.147 130.153L110.144 130.157Z" fill="white"/>
<path d="M259.188 204.701C259.57 204.083 260.02 203.51 260.529 202.992C260.739 202.774 260.961 202.569 261.189 202.369C262.578 201.133 264.271 200.289 266.094 199.924C267.918 199.559 269.805 199.686 271.563 200.292C273.321 200.899 274.885 201.962 276.095 203.374C277.306 204.785 278.118 206.494 278.45 208.323C279.984 202.65 275.99 197.061 271.975 192.769C267.958 188.478 263.366 183.77 263.389 177.89C263.401 174.618 265.001 171.699 267.418 169.535C267.492 169.47 267.567 169.404 267.643 169.341C270.564 166.838 274.321 165.528 278.165 165.674C285.307 166.057 291.543 170.856 295.873 176.55C302.844 185.711 305.898 198.57 301.018 208.998C296.726 218.17 287.572 223.616 278.229 227.995C276.924 228.606 275.622 229.199 274.323 229.774C274.314 229.776 274.305 229.782 274.296 229.785C274.234 229.812 274.171 229.84 274.113 229.868C273.845 229.986 273.576 230.105 273.31 230.222L273.433 230.302L273.818 230.551C273.684 230.47 273.553 230.392 273.42 230.311C273.38 230.287 273.338 230.264 273.298 230.239C268.71 227.486 264.057 224.573 260.887 220.275C257.6 215.812 256.278 209.419 259.188 204.701Z" fill="#F1F1F1"/>
<path d="M289.802 194.336C290.818 196.648 291.492 199.095 291.802 201.601C292.045 203.835 291.954 206.094 291.53 208.301C290.618 212.837 288.631 217.088 285.735 220.697C283.55 223.436 281.028 225.888 278.228 227.995C276.923 228.606 275.621 229.199 274.322 229.774C274.313 229.776 274.304 229.782 274.295 229.785C274.233 229.812 274.17 229.84 274.112 229.868C273.844 229.986 273.575 230.105 273.309 230.222L273.433 230.302L273.817 230.551C273.683 230.47 273.552 230.392 273.419 230.311C273.379 230.287 273.337 230.264 273.298 230.239C274.307 226.707 274.456 222.984 273.731 219.383C273.005 215.781 271.427 212.406 269.129 209.54C266.818 206.71 263.871 204.466 260.528 202.992C260.738 202.774 260.96 202.569 261.188 202.369C262.476 202.96 263.708 203.664 264.872 204.473C269.034 207.349 272.158 211.489 273.784 216.279C275.236 220.625 275.417 225.295 274.307 229.74C274.537 229.59 274.768 229.435 274.993 229.282C279.268 226.399 283.208 222.937 286.175 218.691C288.735 215.103 290.372 210.94 290.945 206.57C291.513 201.796 290.319 197.102 288.187 192.842C285.834 188.285 282.868 184.071 279.373 180.318C275.862 176.46 271.893 173.047 267.553 170.154C267.455 170.088 267.386 169.987 267.361 169.872C267.336 169.757 267.356 169.636 267.417 169.535C267.463 169.444 267.544 169.374 267.642 169.341C267.691 169.328 267.743 169.327 267.793 169.337C267.844 169.347 267.891 169.369 267.932 169.4C268.468 169.757 268.999 170.118 269.523 170.489C273.894 173.584 277.863 177.21 281.339 181.283C284.699 185.209 287.756 189.571 289.802 194.336Z" fill="white"/>
<path d="M196.247 14.5857C199.932 14.5857 202.918 11.5989 202.918 7.91453C202.918 4.23017 199.932 1.24341 196.247 1.24341C192.563 1.24341 189.576 4.23017 189.576 7.91453C189.576 11.5989 192.563 14.5857 196.247 14.5857Z" fill="#F1F1F1"/>
<path d="M279.199 103.861C281.445 103.861 283.266 102.04 283.266 99.7936C283.266 97.5473 281.445 95.7263 279.199 95.7263C276.953 95.7263 275.132 97.5473 275.132 99.7936C275.132 102.04 276.953 103.861 279.199 103.861Z" fill="#F1F1F1"/>
<path d="M160.165 115.02C162.411 115.02 164.232 113.199 164.232 110.953C164.232 108.707 162.411 106.886 160.165 106.886C157.919 106.886 156.098 108.707 156.098 110.953C156.098 113.199 157.919 115.02 160.165 115.02Z" fill="#F1F1F1"/>
<path d="M162.462 231H304.186C304.285 231 304.38 230.961 304.449 230.891C304.519 230.821 304.558 230.727 304.558 230.628C304.558 230.529 304.519 230.435 304.449 230.365C304.38 230.295 304.285 230.256 304.186 230.256H162.462C162.363 230.256 162.269 230.295 162.199 230.365C162.129 230.435 162.09 230.529 162.09 230.628C162.09 230.727 162.129 230.821 162.199 230.891C162.269 230.961 162.363 231 162.462 231Z" fill="#CBCBCB"/>
<path d="M288.546 35.9463C288.732 34.6251 288.427 33.2815 287.689 32.1701C286.95 31.0587 285.83 30.2568 284.54 29.9163C283.25 29.5758 281.88 29.7204 280.689 30.3226C279.498 30.9248 278.57 31.9429 278.08 33.1839L266.579 46.3685L269.954 55.7933L281.52 40.3876C282.274 40.6294 283.073 40.7027 283.859 40.6025C284.645 40.5022 285.4 40.2308 286.07 39.8074C286.74 39.3839 287.308 38.8188 287.736 38.1517C288.164 37.4846 288.441 36.7318 288.546 35.9463Z" fill="#FFB7B7"/>
<path d="M240.874 87.2477L279.05 46.505L273.901 38.3185L226.019 78.8138L240.874 87.2477Z" fill="#3F3D56"/>
<path d="M232.354 62.4928C239.75 62.4928 245.745 56.4973 245.745 49.1015C245.745 41.7057 239.75 35.7102 232.354 35.7102C224.958 35.7102 218.963 41.7057 218.963 49.1015C218.963 56.4973 224.958 62.4928 232.354 62.4928Z" fill="#2F2E41"/>
<path d="M233.431 41.5365C236.312 38.6144 239.799 36.3595 243.646 34.9305C246.116 34.0156 248.804 33.4504 251.385 33.9699C253.967 34.4895 256.409 36.2755 257.129 38.8086C257.718 40.8799 257.11 43.1101 256.196 45.0599C255.282 47.0097 254.062 48.8178 253.322 50.8404C252.568 52.9042 252.341 55.1236 252.663 57.2973C252.984 59.4709 253.843 61.5299 255.161 63.2874C256.48 65.0449 258.217 66.4452 260.214 67.3612C262.211 68.2772 264.406 68.6799 266.598 68.5327C264.061 68.8728 261.723 70.0649 259.244 70.6994C256.764 71.3339 253.838 71.2909 251.995 69.5146C250.046 67.6352 250.007 64.5794 250.101 61.8732C250.241 57.8502 250.381 53.8272 250.521 49.8043C250.593 47.7526 250.654 45.6352 249.914 43.7203C249.174 41.8054 247.416 40.1286 245.363 40.146C243.807 40.1592 242.43 41.1017 241.182 42.0312C239.934 42.9607 238.614 43.9524 237.064 44.0907C235.514 44.2289 233.745 43.082 233.861 41.5305L233.431 41.5365Z" fill="#2F2E41"/>
<path d="M181.493 139.018C180.208 139.375 178.836 139.248 177.637 138.661C176.439 138.074 175.498 137.068 174.991 135.834C174.485 134.599 174.45 133.222 174.891 131.963C175.332 130.704 176.221 129.65 177.387 129.002L188.956 115.877L198.741 117.991L184.978 131.471C185.317 132.188 185.494 132.97 185.497 133.762C185.5 134.555 185.33 135.339 184.998 136.058C184.665 136.778 184.179 137.415 183.574 137.927C182.968 138.438 182.258 138.81 181.493 139.018H181.493Z" fill="#FFB7B7"/>
<path d="M219.554 92.0299L190.72 128.224L181.931 124.188L215.822 71.4248L219.554 92.0299Z" fill="#3F3D56"/>
<path d="M196.548 201.32L189.676 201.212L190.502 224.634H196.547L196.548 201.32Z" fill="#FFB7B7"/>
<path d="M198.088 222.661L186.184 222.66H186.184C184.172 222.661 182.242 223.46 180.82 224.882C179.397 226.305 178.598 228.234 178.598 230.246V230.493L198.088 230.494L198.088 222.661Z" fill="#2F2E41"/>
<path d="M242.048 195.108L234.541 199.927L249.557 217.993L254.644 214.727L242.048 195.108Z" fill="#FFB7B7"/>
<path d="M254.874 212.233L244.857 218.664L244.856 218.665C243.164 219.752 241.972 221.467 241.543 223.432C241.115 225.398 241.485 227.454 242.571 229.147L242.705 229.354L259.105 218.824L254.874 212.233Z" fill="#2F2E41"/>
<path d="M244.722 123.587C244.722 123.587 228.042 68.1888 222.682 67.4401C217.321 66.6915 208.685 81.6547 208.685 81.6547C197.487 95.9418 185.94 142.221 185.94 142.221C185.94 142.221 205.189 143.425 219.26 150.912C233.331 158.398 249.936 150.533 249.936 150.533L244.722 123.587Z" fill="#3F3D56"/>
<path opacity="0.1" d="M244.722 123.587C244.722 123.587 228.042 68.1887 222.682 67.4401C217.321 66.6915 210.878 81.8065 210.878 81.8065C205.299 104.869 185.94 142.221 185.94 142.221C185.94 142.221 205.189 143.425 219.26 150.912C233.331 158.398 249.936 150.533 249.936 150.533L244.722 123.587Z" fill="black"/>
<path d="M231.037 107.012V134.849L234.313 175.174L250.68 205.676L242.868 211.256L220.55 182.241L211.722 153.432L197.859 217.207L187.443 216.463L194.677 128.039L208.403 103.15L231.037 107.012Z" fill="#2F2E41"/>
<path d="M214.22 80.0873C209.012 85.295 213.848 90.8747 213.848 90.8747L207.896 104.266L231.331 110.59L239.521 73.9949L233.941 68.0432C222.782 67.6712 222.776 67.4399 222.776 67.4399C220.82 69.3533 214.22 80.0873 214.22 80.0873Z" fill="#24B347"/>
<path d="M240.465 70.2038C239.4 69.4181 238.191 68.8515 236.906 68.5366C235.621 68.2218 234.286 68.165 232.979 68.3696C231.672 68.5741 230.419 69.036 229.291 69.7284C228.164 70.4209 227.186 71.3301 226.412 72.4034C220.521 80.6064 215.073 93.8522 222.579 110.372C234.631 136.898 245.119 150.477 249.382 150.476C249.568 150.477 249.753 150.448 249.93 150.389C252.555 149.499 256.349 145.058 257.036 141.145C257.282 139.744 257.223 137.793 255.548 136.453C250.736 132.605 242.098 120.621 239.403 104.848C237.914 96.1329 240.802 88.194 243.487 83.0689C244.621 80.9483 244.953 78.49 244.422 76.1446C243.89 73.7993 242.531 71.724 240.594 70.2992L240.465 70.2038Z" fill="#3F3D56"/>
<path d="M233.043 61.1771C237.82 58.5658 239.575 52.5763 236.964 47.7993C234.353 43.0223 228.363 41.2667 223.586 43.8781C218.809 46.4894 217.053 52.4789 219.665 57.2559C222.276 62.0329 228.266 63.7885 233.043 61.1771Z" fill="#FFB7B7"/>
<path d="M214.451 51.7823H228.685L228.831 49.7387L229.561 51.7823H231.753L232.042 47.732L233.488 51.7823H237.729V51.5817C237.726 48.7619 236.605 46.0585 234.611 44.0646C232.617 42.0707 229.914 40.9491 227.094 40.9459H225.087C222.267 40.9491 219.564 42.0707 217.57 44.0646C215.576 46.0585 214.454 48.7619 214.451 51.5817V51.7823Z" fill="#2F2E41"/>
<path d="M235.58 59.128L241.654 57.157V42.4059H230.181L230.465 42.6895C234.417 46.6365 238.812 60.6402 235.58 59.128Z" fill="#2F2E41"/>
</g>
<defs>
<clipPath id="clip0">
<rect width="303.616" height="231" fill="white" transform="translate(0.941406)"/>
</clipPath>
</defs>
</svg>
